<?xml version="1.0" standalone="no"?>
<!DOCTYPE svg PUBLIC "-//W3C//DTD SVG 20010904//EN"
 "http://www.w3.org/TR/2001/REC-SVG-20010904/DTD/svg10.dtd">
<svg version="1.0" xmlns="http://www.w3.org/2000/svg"
 width="100.000000pt" height="100.000000pt" viewBox="0 0 100.000000 100.000000"
 preserveAspectRatio="xMidYMid meet">
<metadata>
Created by potrace 1.15, written by Peter Selinger 2001-2017
</metadata>
<g transform="translate(0.000000,100.000000) scale(0.100000,-0.100000)"
fill="#000000" stroke="none">
<path d="M175 929 c-20 -10 -20 -19 -19 -396 1 -292 4 -388 13 -391 9 -3 8 -7
-3 -16 -23 -16 -6 -37 24 -29 l25 7 -25 7 -25 7 25 1 c20 1 22 3 10 12 -11 8
-9 9 10 3 21 -6 23 -5 13 7 -10 12 -8 15 10 16 15 2 18 0 8 -6 -14 -9 -5 -18
18 -17 8 1 16 8 18 16 4 13 3 13 -6 0 -19 -26 -12 -2 10 34 21 36 33 47 23 23
-5 -13 5 -14 60 -8 5 1 2 9 -5 18 -10 11 -10 14 -1 9 15 -9 15 -1 2 25 -6 10
-8 19 -6 19 3 0 12 -13 21 -30 9 -16 12 -30 8 -30 -4 0 2 -7 13 -15 18 -15 18
-15 0 -8 -13 4 -17 3 -12 -5 5 -8 1 -10 -10 -5 -13 5 -15 3 -9 -7 5 -9 4 -11
-4 -6 -6 4 -8 12 -5 18 5 7 2 8 -5 4 -7 -5 -10 -14 -7 -21 5 -13 -11 -15 -30
-2 -12 7 -24 -1 -24 -15 0 -5 5 -6 12 -2 7 4 8 3 4 -5 -4 -6 -12 -9 -17 -6 -5
4 -9 3 -9 -2 0 -4 -27 -19 -60 -33 -33 -14 -60 -30 -60 -37 0 -7 45 9 104 37
194 91 245 120 180 104 -29 -7 -41 5 -77 76 -23 44 -23 50 -15 225 4 99 13
203 20 230 l13 50 83 0 c46 0 86 -3 88 -7 3 -5 16 -8 30 -8 13 0 24 -4 24 -8
0 -4 14 -16 31 -26 17 -10 28 -21 25 -24 -3 -3 1 -13 10 -23 15 -16 20 -36 28
-104 2 -16 7 -41 12 -54 5 -19 4 -22 -6 -16 -10 6 -12 4 -7 -9 16 -41 20 -69
9 -62 -7 4 -9 -5 -5 -29 3 -19 2 -35 -3 -35 -5 0 -8 -21 -7 -47 2 -35 0 -42
-6 -28 -7 17 -10 15 -16 -17 -4 -23 -12 -35 -19 -32 -7 3 -19 -7 -26 -22 -18
-33 -71 -69 -189 -128 -51 -26 -91 -50 -88 -53 3 -3 56 21 117 53 74 38 124
72 151 101 31 34 39 39 34 21 -11 -33 8 -13 22 25 7 19 12 25 12 14 1 -25 -31
-85 -37 -69 -2 8 -17 1 -42 -22 -21 -19 -73 -54 -115 -77 -42 -23 -74 -43 -71
-46 7 -7 135 66 184 104 23 19 42 30 42 24 0 -14 -65 -66 -117 -93 -23 -13
-43 -27 -43 -31 0 -15 97 44 137 83 49 47 72 94 83 173 l9 62 -4 -63 c-5 -88
-42 -162 -106 -209 -27 -21 -46 -39 -44 -42 8 -8 78 53 112 97 33 44 48 99 57
212 3 44 2 55 -3 35 -11 -37 -13 -10 -4 36 7 33 7 33 15 9 6 -19 6 -16 3 11
-3 20 -2 47 3 60 9 23 9 23 16 -5 4 -16 5 -31 1 -34 -3 -3 -5 3 -5 13 0 10 -2
16 -5 13 -3 -3 1 -37 10 -77 20 -96 18 -184 -5 -251 -22 -65 -19 -79 6 -24 29
64 22 336 -9 404 -16 35 -16 35 -11 5 3 -24 3 -26 -5 -10 l-10 20 -1 -20 -1
-20 -9 20 c-12 28 -12 43 1 25 9 -12 9 -11 3 5 -4 11 -7 31 -7 44 1 19 -1 21
-9 10 -8 -12 -9 -12 -5 1 2 8 10 14 17 12 6 -1 10 3 8 10 -3 7 -10 13 -16 13
-7 0 -12 3 -12 8 0 4 0 10 0 13 0 4 7 1 15 -6 8 -7 15 -9 15 -5 0 4 7 2 15 -5
28 -23 15 6 -15 35 -16 15 -27 32 -23 37 3 6 23 -7 44 -28 22 -21 39 -33 39
-28 0 6 -10 20 -23 32 -18 17 -23 32 -22 66 0 25 3 47 6 51 3 3 5 -13 4 -34
-2 -34 4 -45 32 -73 37 -36 46 -28 11 10 -13 13 -24 37 -24 53 -1 16 -2 36 -3
44 0 8 -12 17 -25 21 -14 3 -27 12 -30 20 -3 8 -17 14 -31 14 -14 0 -25 5 -25
10 0 6 -13 10 -28 10 -16 0 -32 3 -35 6 -8 9 -147 15 -170 8 -9 -3 -15 -10
-12 -15 4 -5 -1 -12 -9 -15 -9 -3 -14 -9 -11 -14 2 -4 -7 -18 -20 -30 -27 -25
-35 -51 -10 -30 8 7 4 -8 -10 -33 -18 -31 -24 -54 -20 -74 4 -22 3 -24 -4 -8
-7 16 -10 11 -17 -30 -10 -56 -9 -213 1 -253 5 -21 4 -24 -5 -15 -7 6 -14 55
-17 115 -6 108 11 207 43 256 9 13 13 26 11 29 -9 8 -36 -52 -52 -114 -8 -31
-15 -89 -16 -128 0 -58 -2 -66 -11 -45 -5 14 -8 57 -5 97 6 84 41 171 90 221
17 17 26 32 20 32 -18 0 -74 -76 -93 -128 -10 -26 -21 -70 -26 -97 -7 -48 -8
-49 -16 -20 -17 61 30 175 94 230 23 19 37 35 31 35 -13 0 -86 -78 -104 -111
-7 -13 -18 -42 -25 -64 l-12 -40 -7 29 c-15 54 59 157 144 201 25 13 39 24 30
25 -42 1 -140 -88 -171 -154 -8 -19 -14 -23 -20 -14 -4 7 -8 18 -8 24 0 18 80
103 112 120 16 9 27 18 25 21 -9 8 -69 -36 -109 -81 -37 -41 -37 -41 -38 -14
0 21 11 36 46 63 26 19 43 35 37 35 -5 0 -28 -16 -50 -35 -35 -30 -42 -33 -45
-18 -2 10 6 26 17 35 22 19 20 21 -10 7z"/>
<path d="M784 795 c1 -13 12 -35 25 -49 38 -40 14 -53 -28 -14 l-36 33 29 -32
c44 -49 22 -62 -28 -16 -41 38 -41 38 -8 2 20 -22 30 -42 27 -51 -4 -9 -1 -19
6 -24 9 -5 10 -2 6 10 -4 10 -3 15 3 11 6 -3 10 0 10 7 0 10 2 11 8 0 6 -9 12
-5 21 14 11 25 14 26 27 12 13 -12 14 -20 5 -36 -6 -11 -8 -29 -5 -39 5 -15 4
-15 -5 -3 -17 23 -13 9 14 -58 14 -34 25 -67 24 -74 0 -7 -9 8 -19 33 -43 105
-51 122 -56 117 -3 -4 4 -24 15 -47 12 -22 21 -46 21 -53 -1 -7 -7 1 -15 17
-7 17 -14 24 -14 17 -1 -7 3 -22 9 -32 5 -10 21 -60 34 -112 14 -51 25 -84 25
-73 1 11 -8 53 -19 93 -26 94 -24 104 4 22 l23 -65 -2 85 c-1 59 -6 95 -18
117 -23 43 -21 54 4 23 l20 -25 -15 31 c-8 17 -13 34 -10 37 3 3 0 16 -7 29
-7 12 -12 27 -11 32 2 5 -7 19 -19 32 -12 13 -19 24 -15 24 5 0 3 7 -4 15 -18
22 -27 18 -26 -10z"/>
</g>
</svg>
